<?xml version="1.0" encoding="utf-8"?>
<!-- Generator: Adobe Illustrator 16.0.0, SVG Export Plug-In . SVG Version: 6.00 Build 0)  -->
<!DOCTYPE svg PUBLIC "-//W3C//DTD SVG 1.1//EN" "http://www.w3.org/Graphics/SVG/1.1/DTD/svg11.dtd">
<svg version="1.1" id="Layer_1" xmlns="http://www.w3.org/2000/svg" xmlns:xlink="http://www.w3.org/1999/xlink" x="0px" y="0px"
	 width="400px" height="400px" viewBox="0 0 400 400" enable-background="new 0 0 400 400" xml:space="preserve">
<linearGradient id="SVGID_1_" gradientUnits="userSpaceOnUse" x1="306" y1="-194.9995" x2="306" y2="205.0005" gradientTransform="matrix(1 0 0 -1 -106 205)">
	<stop  offset="0" style="stop-color:#FFFFFF"/>
	<stop  offset="1" style="stop-color:#00C1DE"/>
</linearGradient>
<rect opacity="0.2" fill="url(#SVGID_1_)" enable-background="new    " width="400" height="400"/>
<g>
	<path fill="#FFFFFF" d="M312.333,382.797c-16.271,0-31.894,0.85-46.419,2.41c15.324,4.15,28.095,9.165,37.5,14.793H400v-7.77
		C376.005,386.33,345.519,382.797,312.333,382.797z"/>
	<path opacity="0.8" fill="#77AF42" enable-background="new    " d="M312.333,382.797c-16.271,0-31.894,0.85-46.419,2.41
		c15.324,4.15,28.095,9.165,37.5,14.793H400v-7.77C376.005,386.33,345.519,382.797,312.333,382.797z"/>
	<path fill="#FFFFFF" d="M0.333,383.23V400h10.253c8.024-4.802,18.5-9.154,30.92-12.909C28.746,385.191,14.902,383.869,0.333,383.23
		z"/>
	<path opacity="0.8" fill="#77AF42" enable-background="new    " d="M0.333,383.23V400h10.253c8.024-4.802,18.5-9.154,30.92-12.909
		C28.746,385.191,14.902,383.869,0.333,383.23z"/>
	<path fill="#77AF42" d="M157,372.582c-45.022,0-85.813,5.538-115.494,14.509c20.202,3.007,37.686,7.455,51.019,12.909h107.617
		c16.482-6.742,39.309-11.949,65.772-14.793C236.919,377.352,198.78,372.582,157,372.582z"/>
	<path fill="#77AF42" d="M200.142,400h103.272c-9.405-5.628-22.176-10.643-37.5-14.793C239.45,388.051,216.624,393.258,200.142,400z
		"/>
	<path fill="#77AF42" d="M10.586,400h81.938c-13.333-5.454-30.817-9.902-51.019-12.909C29.086,390.846,18.61,395.198,10.586,400z"/>
</g>
<g>
	<g>
		<line fill="none" stroke="#00C1DE" stroke-width="4" stroke-miterlimit="10" x1="41.022" y1="306.626" x2="41.527" y2="304.689"/>
		<polyline fill="none" stroke="#00C1DE" stroke-width="4" stroke-miterlimit="10" stroke-dasharray="4.0223,4.0223" points="
			42.543,300.799 60.619,231.54 79.959,163.003 		"/>
		<path fill="none" stroke="#00C1DE" stroke-width="4" stroke-miterlimit="10" d="M80.505,161.068l0.543-1.925
			c0,0,0.179,0.689,0.504,1.933"/>
		<path fill="none" stroke="#00C1DE" stroke-width="4" stroke-miterlimit="10" stroke-dasharray="3.9929,3.9929" d="M82.561,164.935
			c4.662,17.821,18.5,70.454,18.5,67.322c0-3.226,14.889-54.459,19.142-69.028"/>
		<path fill="none" stroke="#00C1DE" stroke-width="4" stroke-miterlimit="10" d="M120.764,161.307
			c0.36-1.233,0.561-1.915,0.561-1.915l0.528,1.929"/>
		
			<line fill="none" stroke="#00C1DE" stroke-width="4" stroke-miterlimit="10" stroke-dasharray="4.165,4.165" x1="122.953" y1="165.338" x2="140.007" y2="227.604"/>
		<polyline fill="none" stroke="#00C1DE" stroke-width="4" stroke-miterlimit="10" points="140.558,229.611 141.086,231.54 
			143.086,231.521 		"/>
		
			<line fill="none" stroke="#00C1DE" stroke-width="4" stroke-miterlimit="10" stroke-dasharray="3.2028,3.2028" x1="146.289" y1="231.494" x2="157.498" y2="231.396"/>
		<path fill="none" stroke="#00C1DE" stroke-width="4" stroke-miterlimit="10" d="M159.099,231.381l2-0.018
			c0,0,0.175,0.688,0.492,1.936"/>
		<path fill="none" stroke="#00C1DE" stroke-width="4" stroke-miterlimit="10" stroke-dasharray="4.0512,4.0512" d="M162.59,237.221
			c4.641,18.196,18.521,72.362,18.521,69.229c0-3.765,20.012-75.087,20.012-75.087l18.484-64.473"/>
		<polyline fill="none" stroke="#00C1DE" stroke-width="4" stroke-miterlimit="10" points="220.169,164.934 220.721,163.012 
			220.904,165.003 		"/>
		
			<line fill="none" stroke="#00C1DE" stroke-width="4" stroke-miterlimit="10" stroke-dasharray="4.0689,4.0689" x1="221.284" y1="169.054" x2="240.773" y2="377.695"/>
		<polyline fill="none" stroke="#00C1DE" stroke-width="4" stroke-miterlimit="10" points="240.963,379.721 241.148,381.712 
			241.359,379.725 		"/>
		
			<line fill="none" stroke="#00C1DE" stroke-width="4" stroke-miterlimit="10" stroke-dasharray="3.9736,3.9736" x1="241.781" y1="375.771" x2="256.734" y2="235.504"/>
		<polyline fill="none" stroke="#00C1DE" stroke-width="4" stroke-miterlimit="10" points="256.945,233.527 257.157,231.54 
			259.157,231.54 		"/>
		<polyline fill="none" stroke="#00C1DE" stroke-width="4" stroke-miterlimit="10" stroke-dasharray="3.7708,3.7708" points="
			262.928,231.54 277.171,231.54 291.209,231.54 		"/>
		<polyline fill="none" stroke="#00C1DE" stroke-width="4" stroke-miterlimit="10" points="293.096,231.54 295.096,231.54 
			295.704,233.445 		"/>
		
			<line fill="none" stroke="#00C1DE" stroke-width="4" stroke-miterlimit="10" stroke-dasharray="4.0295,4.0295" x1="296.934" y1="237.282" x2="315.973" y2="296.768"/>
		<polyline fill="none" stroke="#00C1DE" stroke-width="4" stroke-miterlimit="10" points="316.587,298.686 317.196,300.59 
			317.753,298.669 		"/>
		
			<line fill="none" stroke="#00C1DE" stroke-width="4" stroke-miterlimit="10" stroke-dasharray="3.9936,3.9936" x1="318.865" y1="294.833" x2="336.097" y2="235.379"/>
		
			<line fill="none" stroke="#00C1DE" stroke-width="4" stroke-miterlimit="10" x1="336.652" y1="233.461" x2="337.209" y2="231.54"/>
	</g>
</g>
<circle fill="#00C1DE" cx="41.023" cy="306.626" r="6.036"/>
<circle fill="#00C1DE" cx="60.619" cy="230.823" r="6.036"/>
<circle fill="#00C1DE" cx="81.049" cy="155.975" r="6.036"/>
<circle fill="#00C1DE" cx="101.061" cy="230.823" r="6.036"/>
<circle fill="#00C1DE" cx="121.325" cy="155.975" r="6.036"/>
<circle fill="#00C1DE" cx="140.735" cy="230.823" r="6.036"/>
<circle fill="#00C1DE" cx="161.099" cy="231.363" r="6.036"/>
<circle fill="#00C1DE" cx="181.112" cy="306.45" r="6.036"/>
<circle fill="#00C1DE" cx="201.124" cy="231.363" r="6.036"/>
<circle fill="#00C1DE" cx="220.721" cy="155.975" r="6.036"/>
<circle fill="#00C1DE" cx="241.15" cy="381.712" r="6.036"/>
<circle fill="#00C1DE" cx="256.918" cy="230.823" r="6.036"/>
<circle fill="#00C1DE" cx="277.645" cy="230.823" r="6.036"/>
<circle fill="#00C1DE" cx="296.561" cy="230.823" r="6.036"/>
<circle fill="#00C1DE" cx="317.197" cy="306.626" r="6.036"/>
<circle fill="#00C1DE" cx="337.029" cy="230.823" r="6.036"/>
<g>
	<polygon fill="#5F6062" points="357.885,237.828 352.878,226.907 389.154,225.773 389.059,226.146 	"/>
	<polygon fill="#F4CF1C" points="354.096,236.146 389.084,226.048 389.014,226.314 357.157,242.65 	"/>
	<polygon fill="#242F66" points="371.566,231.619 389.08,226.062 389.004,226.374 373.225,235.354 	"/>
	<polygon fill="#73B451" points="355.522,218.996 389.21,225.562 389.154,225.773 352.878,226.907 	"/>
	<polygon fill="#F47641" points="347.812,242.078 351.681,230.491 389.13,225.868 389.053,226.162 	"/>
</g>
</svg>
