<?xml version="1.0" encoding="utf-8"?>
<!-- Generator: Adobe Illustrator 16.0.0, SVG Export Plug-In . SVG Version: 6.00 Build 0)  -->
<!DOCTYPE svg PUBLIC "-//W3C//DTD SVG 1.1//EN" "http://www.w3.org/Graphics/SVG/1.1/DTD/svg11.dtd">
<svg version="1.1" id="Layer_1" xmlns="http://www.w3.org/2000/svg" xmlns:xlink="http://www.w3.org/1999/xlink" x="0px" y="0px"
	 width="1200px" height="500px" viewBox="0 0 1200 500" enable-background="new 0 0 1200 500" xml:space="preserve">
<g id="background">
	
		<linearGradient id="SVGID_1_" gradientUnits="userSpaceOnUse" x1="706" y1="-194.9995" x2="706" y2="305.0005" gradientTransform="matrix(1 0 0 -1 -106 305)">
		<stop  offset="0" style="stop-color:#FFFFFF"/>
		<stop  offset="1" style="stop-color:#00C1DE"/>
	</linearGradient>
	<rect opacity="0.2" fill="url(#SVGID_1_)" enable-background="new    " width="1200" height="500"/>
	<g>
		<path fill="#FFFFFF" d="M937,468c-48.812,0-95.68,1.58-139.259,4.483c45.974,7.723,84.285,17.049,112.501,27.517H1200v-14.449
			C1128.018,474.572,1036.561,468,937,468z"/>
		<path opacity="0.8" fill="#77AF42" enable-background="new    " d="M937,468c-48.812,0-95.68,1.58-139.259,4.483
			c45.974,7.723,84.285,17.049,112.501,27.517H1200v-14.449C1128.018,474.572,1036.561,468,937,468z"/>
		<path fill="#FFFFFF" d="M1,468.808V500h30.758c24.073-8.931,55.5-17.03,92.76-24.013C86.238,472.455,44.705,469.993,1,468.808z"/>
		<path opacity="0.8" fill="#77AF42" enable-background="new    " d="M1,468.808V500h30.758c24.073-8.931,55.5-17.03,92.76-24.013
			C86.238,472.455,44.705,469.993,1,468.808z"/>
		<path fill="#77AF42" d="M471,449c-135.065,0-257.438,10.302-346.481,26.987c60.605,5.593,113.059,13.868,153.057,24.013h322.85
			c49.447-12.541,117.928-22.227,197.316-27.517C710.754,457.871,596.34,449,471,449z"/>
		<path fill="#77AF42" d="M600.425,500h309.817c-28.216-10.468-66.527-19.794-112.501-27.517
			C718.352,477.773,649.872,487.459,600.425,500z"/>
		<path fill="#77AF42" d="M31.758,500h245.817c-39.998-10.145-92.452-18.42-153.057-24.013C87.258,482.97,55.831,491.069,31.758,500
			z"/>
	</g>
</g>
<g id="lines" display="none">
	
		<line display="inline" opacity="0.2" fill="none" stroke="#5F6163" stroke-miterlimit="10" enable-background="new    " x1="101" y1="46.979" x2="1170.334" y2="46.979"/>
	
		<line display="inline" opacity="0.2" fill="none" stroke="#5F6163" stroke-miterlimit="10" enable-background="new    " x1="101" y1="186.646" x2="1170.334" y2="186.646"/>
	
		<line display="inline" opacity="0.2" fill="none" stroke="#5F6163" stroke-miterlimit="10" enable-background="new    " x1="101" y1="326.314" x2="1170.334" y2="326.314"/>
	
		<line display="inline" opacity="0.2" fill="none" stroke="#5F6163" stroke-miterlimit="10" enable-background="new    " x1="101" y1="465.982" x2="1170.334" y2="465.982"/>
	
		<line display="inline" opacity="0.2" fill="none" stroke="#5F6163" stroke-miterlimit="10" enable-background="new    " x1="100.995" y1="46.979" x2="100.995" y2="465.982"/>
	
		<line display="inline" opacity="0.2" fill="none" stroke="#5F6163" stroke-miterlimit="10" enable-background="new    " x1="130.773" y1="46.979" x2="130.773" y2="465.982"/>
	
		<line display="inline" opacity="0.2" fill="none" stroke="#5F6163" stroke-miterlimit="10" enable-background="new    " x1="160.551" y1="46.979" x2="160.551" y2="465.982"/>
	
		<line display="inline" opacity="0.2" fill="none" stroke="#5F6163" stroke-miterlimit="10" enable-background="new    " x1="190.329" y1="46.979" x2="190.329" y2="465.982"/>
	
		<line display="inline" opacity="0.2" fill="none" stroke="#5F6163" stroke-miterlimit="10" enable-background="new    " x1="220.107" y1="46.979" x2="220.107" y2="465.982"/>
	
		<line display="inline" opacity="0.2" fill="none" stroke="#5F6163" stroke-miterlimit="10" enable-background="new    " x1="249.885" y1="46.979" x2="249.885" y2="465.982"/>
	
		<line display="inline" opacity="0.2" fill="none" stroke="#5F6163" stroke-miterlimit="10" enable-background="new    " x1="279.663" y1="46.979" x2="279.663" y2="465.982"/>
	
		<line display="inline" opacity="0.2" fill="none" stroke="#5F6163" stroke-miterlimit="10" enable-background="new    " x1="309.44" y1="46.979" x2="309.44" y2="465.982"/>
	
		<line display="inline" opacity="0.2" fill="none" stroke="#5F6163" stroke-miterlimit="10" enable-background="new    " x1="339.218" y1="46.979" x2="339.218" y2="465.982"/>
	
		<line display="inline" opacity="0.2" fill="none" stroke="#5F6163" stroke-miterlimit="10" enable-background="new    " x1="368.996" y1="46.979" x2="368.996" y2="465.982"/>
	
		<line display="inline" opacity="0.2" fill="none" stroke="#5F6163" stroke-miterlimit="10" enable-background="new    " x1="398.774" y1="46.979" x2="398.774" y2="465.982"/>
	
		<line display="inline" opacity="0.2" fill="none" stroke="#5F6163" stroke-miterlimit="10" enable-background="new    " x1="428.552" y1="46.979" x2="428.552" y2="465.982"/>
	
		<line display="inline" opacity="0.2" fill="none" stroke="#5F6163" stroke-miterlimit="10" enable-background="new    " x1="458.33" y1="46.979" x2="458.33" y2="465.982"/>
	
		<line display="inline" opacity="0.2" fill="none" stroke="#5F6163" stroke-miterlimit="10" enable-background="new    " x1="488.108" y1="46.979" x2="488.108" y2="465.982"/>
	
		<line display="inline" opacity="0.2" fill="none" stroke="#5F6163" stroke-miterlimit="10" enable-background="new    " x1="517.886" y1="46.979" x2="517.886" y2="465.982"/>
	
		<line display="inline" opacity="0.2" fill="none" stroke="#5F6163" stroke-miterlimit="10" enable-background="new    " x1="547.664" y1="46.979" x2="547.664" y2="465.982"/>
	
		<line display="inline" opacity="0.2" fill="none" stroke="#5F6163" stroke-miterlimit="10" enable-background="new    " x1="577.442" y1="46.979" x2="577.442" y2="465.982"/>
	
		<line display="inline" opacity="0.2" fill="none" stroke="#5F6163" stroke-miterlimit="10" enable-background="new    " x1="607.22" y1="46.979" x2="607.22" y2="465.982"/>
	
		<line display="inline" opacity="0.2" fill="none" stroke="#5F6163" stroke-miterlimit="10" enable-background="new    " x1="636.998" y1="46.979" x2="636.998" y2="465.982"/>
	
		<line display="inline" opacity="0.2" fill="none" stroke="#5F6163" stroke-miterlimit="10" enable-background="new    " x1="666.775" y1="46.979" x2="666.775" y2="465.982"/>
	
		<line display="inline" opacity="0.2" fill="none" stroke="#5F6163" stroke-miterlimit="10" enable-background="new    " x1="696.554" y1="46.979" x2="696.554" y2="465.982"/>
	
		<line display="inline" opacity="0.2" fill="none" stroke="#5F6163" stroke-miterlimit="10" enable-background="new    " x1="726.331" y1="46.979" x2="726.331" y2="465.982"/>
	
		<line display="inline" opacity="0.2" fill="none" stroke="#5F6163" stroke-miterlimit="10" enable-background="new    " x1="756.109" y1="46.979" x2="756.109" y2="465.982"/>
	
		<line display="inline" opacity="0.2" fill="none" stroke="#5F6163" stroke-miterlimit="10" enable-background="new    " x1="785.887" y1="46.979" x2="785.887" y2="465.982"/>
	
		<line display="inline" opacity="0.2" fill="none" stroke="#5F6163" stroke-miterlimit="10" enable-background="new    " x1="815.665" y1="46.979" x2="815.665" y2="465.982"/>
	
		<line display="inline" opacity="0.2" fill="none" stroke="#5F6163" stroke-miterlimit="10" enable-background="new    " x1="845.443" y1="46.979" x2="845.443" y2="465.982"/>
	
		<line display="inline" opacity="0.2" fill="none" stroke="#5F6163" stroke-miterlimit="10" enable-background="new    " x1="875.221" y1="46.979" x2="875.221" y2="465.982"/>
	
		<line display="inline" opacity="0.2" fill="none" stroke="#5F6163" stroke-miterlimit="10" enable-background="new    " x1="904.999" y1="46.979" x2="904.999" y2="465.982"/>
	
		<line display="inline" opacity="0.2" fill="none" stroke="#5F6163" stroke-miterlimit="10" enable-background="new    " x1="934.776" y1="46.979" x2="934.776" y2="465.982"/>
	
		<line display="inline" opacity="0.2" fill="none" stroke="#5F6163" stroke-miterlimit="10" enable-background="new    " x1="964.555" y1="46.979" x2="964.555" y2="465.982"/>
	
		<line display="inline" opacity="0.2" fill="none" stroke="#5F6163" stroke-miterlimit="10" enable-background="new    " x1="994.332" y1="46.979" x2="994.332" y2="465.982"/>
	
		<line display="inline" opacity="0.2" fill="none" stroke="#5F6163" stroke-miterlimit="10" enable-background="new    " x1="1024.11" y1="46.979" x2="1024.11" y2="465.982"/>
	
		<line display="inline" opacity="0.2" fill="none" stroke="#5F6163" stroke-miterlimit="10" enable-background="new    " x1="1053.889" y1="46.979" x2="1053.889" y2="465.982"/>
	
		<line display="inline" opacity="0.2" fill="none" stroke="#5F6163" stroke-miterlimit="10" enable-background="new    " x1="1083.666" y1="46.979" x2="1083.666" y2="465.982"/>
	
		<line display="inline" opacity="0.2" fill="none" stroke="#5F6163" stroke-miterlimit="10" enable-background="new    " x1="1113.444" y1="46.979" x2="1113.444" y2="465.982"/>
	
		<line display="inline" opacity="0.2" fill="none" stroke="#5F6163" stroke-miterlimit="10" enable-background="new    " x1="1143.223" y1="46.979" x2="1143.223" y2="465.982"/>
	
		<line display="inline" opacity="0.2" fill="none" stroke="#5F6163" stroke-miterlimit="10" enable-background="new    " x1="1173" y1="46.979" x2="1173" y2="465.982"/>
</g>
<g id="labels">
	<g>
		<path d="M16.53,39.34v2.08h-4.784v2.952h3.984v2.088h-3.984v4.536h-2.72V39.34H16.53z"/>
		<path d="M20.498,39.02v11.976h-2.48V39.02H20.498z"/>
		<path d="M25.89,53.148c-0.075,0.166-0.166,0.287-0.272,0.364c-0.107,0.077-0.277,0.116-0.512,0.116H23.25l1.6-3.36L21.538,42.7
			h2.192c0.192,0,0.341,0.042,0.448,0.128c0.106,0.085,0.181,0.187,0.224,0.304l1.36,3.576c0.128,0.331,0.232,0.662,0.312,0.992
			c0.053-0.171,0.112-0.339,0.176-0.504c0.064-0.166,0.125-0.333,0.184-0.504l1.232-3.56c0.042-0.123,0.126-0.226,0.252-0.308
			s0.26-0.124,0.404-0.124h2L25.89,53.148z"/>
		<path d="M34.194,40.428c0,0.197-0.04,0.383-0.12,0.556c-0.08,0.173-0.189,0.326-0.328,0.456c-0.139,0.131-0.3,0.235-0.484,0.312
			c-0.184,0.078-0.38,0.116-0.588,0.116c-0.203,0-0.392-0.039-0.568-0.116c-0.176-0.077-0.332-0.181-0.468-0.312
			c-0.136-0.13-0.243-0.283-0.32-0.456c-0.078-0.173-0.116-0.358-0.116-0.556c0-0.203,0.039-0.392,0.116-0.568
			c0.077-0.176,0.184-0.331,0.32-0.464c0.136-0.133,0.292-0.237,0.468-0.312c0.176-0.075,0.365-0.112,0.568-0.112
			c0.208,0,0.404,0.037,0.588,0.112c0.184,0.075,0.345,0.179,0.484,0.312c0.139,0.133,0.248,0.288,0.328,0.464
			C34.154,40.036,34.194,40.226,34.194,40.428z M33.906,42.7v8.296h-2.48V42.7H33.906z"/>
		<path d="M35.906,50.996V42.7h1.536c0.154,0,0.284,0.035,0.388,0.104c0.104,0.069,0.177,0.173,0.22,0.312l0.144,0.48
			c0.16-0.149,0.325-0.288,0.496-0.416c0.17-0.128,0.353-0.236,0.548-0.324c0.195-0.088,0.405-0.157,0.632-0.208
			c0.227-0.05,0.474-0.076,0.74-0.076c0.453,0,0.854,0.079,1.204,0.236c0.349,0.157,0.644,0.376,0.884,0.656
			c0.24,0.28,0.421,0.614,0.544,1c0.123,0.387,0.184,0.807,0.184,1.26v5.272h-2.48v-5.272c0-0.405-0.093-0.721-0.28-0.948
			s-0.461-0.34-0.824-0.34c-0.272,0-0.528,0.059-0.768,0.176c-0.24,0.117-0.469,0.274-0.688,0.472v5.912H35.906z"/>
		<path d="M48.114,42.556c0.352,0,0.684,0.035,0.996,0.104c0.312,0.069,0.602,0.168,0.868,0.296h2.504v0.904
			c0,0.139-0.039,0.248-0.116,0.328c-0.078,0.08-0.209,0.142-0.396,0.184l-0.608,0.136c0.074,0.24,0.112,0.488,0.112,0.744
			c0,0.416-0.087,0.79-0.26,1.12c-0.173,0.33-0.411,0.612-0.712,0.844c-0.301,0.232-0.657,0.411-1.068,0.536
			s-0.851,0.188-1.32,0.188c-0.262,0-0.507-0.016-0.736-0.048c-0.181,0.108-0.272,0.231-0.272,0.372s0.073,0.241,0.22,0.303
			c0.146,0.062,0.34,0.105,0.58,0.129c0.24,0.024,0.515,0.036,0.824,0.036c0.31,0,0.624,0.015,0.944,0.044
			c0.32,0.029,0.634,0.079,0.944,0.148c0.309,0.069,0.584,0.182,0.824,0.337c0.24,0.155,0.434,0.362,0.58,0.622
			c0.146,0.259,0.22,0.59,0.22,0.991c0,0.375-0.091,0.741-0.272,1.099c-0.182,0.358-0.448,0.677-0.8,0.955
			c-0.352,0.278-0.784,0.501-1.296,0.67c-0.512,0.168-1.099,0.253-1.76,0.253c-0.651,0-1.212-0.062-1.684-0.184
			c-0.472-0.123-0.864-0.284-1.176-0.484c-0.312-0.201-0.542-0.431-0.692-0.693c-0.15-0.262-0.224-0.534-0.224-0.817
			c0-0.369,0.112-0.68,0.336-0.933c0.224-0.253,0.53-0.452,0.92-0.597c-0.187-0.123-0.336-0.279-0.448-0.471
			c-0.112-0.192-0.168-0.434-0.168-0.727c0-0.123,0.021-0.251,0.064-0.387c0.043-0.136,0.109-0.268,0.2-0.396
			c0.09-0.128,0.205-0.25,0.344-0.368c0.139-0.117,0.304-0.221,0.496-0.312c-0.432-0.229-0.772-0.533-1.02-0.912
			c-0.248-0.379-0.372-0.819-0.372-1.32c0-0.416,0.088-0.791,0.264-1.124c0.176-0.333,0.417-0.616,0.724-0.848
			c0.307-0.232,0.668-0.411,1.084-0.536S47.628,42.556,48.114,42.556z M49.954,51.282c0-0.136-0.042-0.245-0.124-0.327
			s-0.195-0.147-0.336-0.196c-0.142-0.049-0.307-0.084-0.496-0.106s-0.394-0.033-0.612-0.033c-0.219,0-0.445,0-0.68,0
			s-0.467-0.022-0.696-0.068c-0.155,0.107-0.282,0.226-0.38,0.357c-0.099,0.131-0.148,0.279-0.148,0.445
			c0,0.118,0.025,0.225,0.076,0.321c0.051,0.096,0.14,0.179,0.268,0.249c0.128,0.069,0.3,0.124,0.516,0.164
			c0.216,0.04,0.489,0.06,0.82,0.06c0.357,0,0.65-0.022,0.88-0.065s0.412-0.104,0.548-0.18c0.136-0.076,0.231-0.167,0.284-0.273
			C49.927,51.523,49.954,51.407,49.954,51.282z M48.114,46.412c0.411,0,0.708-0.103,0.892-0.308s0.276-0.471,0.276-0.796
			c0-0.336-0.092-0.6-0.276-0.792s-0.481-0.288-0.892-0.288c-0.411,0-0.708,0.096-0.892,0.288c-0.184,0.192-0.276,0.456-0.276,0.792
			c0,0.16,0.022,0.307,0.068,0.44c0.045,0.133,0.116,0.25,0.212,0.348c0.096,0.098,0.217,0.176,0.364,0.232
			C47.736,46.384,47.911,46.412,48.114,46.412z"/>
		<path d="M66.817,50.996h-2.72v-4.928h-4.736v4.928h-2.72V39.34h2.72v4.872h4.736V39.34h2.72V50.996z"/>
		<path d="M71.585,40.428c0,0.197-0.04,0.383-0.12,0.556c-0.08,0.173-0.189,0.326-0.328,0.456c-0.139,0.131-0.3,0.235-0.484,0.312
			c-0.184,0.078-0.38,0.116-0.588,0.116c-0.203,0-0.392-0.039-0.568-0.116c-0.176-0.077-0.332-0.181-0.468-0.312
			c-0.136-0.13-0.243-0.283-0.32-0.456c-0.078-0.173-0.116-0.358-0.116-0.556c0-0.203,0.039-0.392,0.116-0.568
			c0.077-0.176,0.184-0.331,0.32-0.464c0.136-0.133,0.292-0.237,0.468-0.312c0.176-0.075,0.365-0.112,0.568-0.112
			c0.208,0,0.404,0.037,0.588,0.112s0.345,0.179,0.484,0.312c0.139,0.133,0.248,0.288,0.328,0.464
			C71.545,40.036,71.585,40.226,71.585,40.428z M71.297,42.7v8.296h-2.48V42.7H71.297z"/>
		<path d="M76.226,42.556c0.352,0,0.684,0.035,0.996,0.104c0.312,0.069,0.602,0.168,0.868,0.296h2.504v0.904
			c0,0.139-0.039,0.248-0.116,0.328c-0.078,0.08-0.209,0.142-0.396,0.184l-0.608,0.136c0.074,0.24,0.112,0.488,0.112,0.744
			c0,0.416-0.087,0.79-0.26,1.12c-0.173,0.33-0.411,0.612-0.712,0.844c-0.301,0.232-0.657,0.411-1.068,0.536
			s-0.851,0.188-1.32,0.188c-0.262,0-0.507-0.016-0.736-0.048c-0.181,0.108-0.272,0.231-0.272,0.372s0.073,0.241,0.22,0.303
			c0.146,0.062,0.34,0.105,0.58,0.129c0.24,0.024,0.515,0.036,0.824,0.036c0.31,0,0.624,0.015,0.944,0.044
			c0.32,0.029,0.634,0.079,0.944,0.148c0.309,0.069,0.584,0.182,0.824,0.337c0.24,0.155,0.434,0.362,0.58,0.622
			c0.146,0.259,0.22,0.59,0.22,0.991c0,0.375-0.091,0.741-0.272,1.099c-0.182,0.358-0.448,0.677-0.8,0.955
			c-0.352,0.278-0.784,0.501-1.296,0.67c-0.512,0.168-1.099,0.253-1.76,0.253c-0.651,0-1.212-0.062-1.684-0.184
			c-0.472-0.123-0.864-0.284-1.176-0.484c-0.312-0.201-0.542-0.431-0.692-0.693c-0.15-0.262-0.224-0.534-0.224-0.817
			c0-0.369,0.112-0.68,0.336-0.933c0.224-0.253,0.53-0.452,0.92-0.597c-0.187-0.123-0.336-0.279-0.448-0.471
			c-0.112-0.192-0.168-0.434-0.168-0.727c0-0.123,0.021-0.251,0.064-0.387c0.043-0.136,0.109-0.268,0.2-0.396
			c0.09-0.128,0.205-0.25,0.344-0.368c0.139-0.117,0.304-0.221,0.496-0.312c-0.432-0.229-0.772-0.533-1.02-0.912
			c-0.248-0.379-0.372-0.819-0.372-1.32c0-0.416,0.088-0.791,0.264-1.124c0.176-0.333,0.417-0.616,0.724-0.848
			s0.668-0.411,1.084-0.536S75.74,42.556,76.226,42.556z M78.065,51.282c0-0.136-0.042-0.245-0.124-0.327s-0.195-0.147-0.336-0.196
			c-0.142-0.049-0.307-0.084-0.496-0.106s-0.394-0.033-0.612-0.033c-0.219,0-0.445,0-0.68,0s-0.467-0.022-0.696-0.068
			c-0.155,0.107-0.282,0.226-0.38,0.357c-0.099,0.131-0.148,0.279-0.148,0.445c0,0.118,0.025,0.225,0.076,0.321
			c0.051,0.096,0.14,0.179,0.268,0.249c0.128,0.069,0.3,0.124,0.516,0.164c0.216,0.04,0.489,0.06,0.82,0.06
			c0.357,0,0.65-0.022,0.88-0.065s0.412-0.104,0.548-0.18c0.136-0.076,0.231-0.167,0.284-0.273
			C78.039,51.523,78.065,51.407,78.065,51.282z M76.226,46.412c0.411,0,0.708-0.103,0.892-0.308
			c0.184-0.205,0.276-0.471,0.276-0.796c0-0.336-0.092-0.6-0.276-0.792c-0.184-0.192-0.481-0.288-0.892-0.288
			s-0.708,0.096-0.892,0.288s-0.276,0.456-0.276,0.792c0,0.16,0.022,0.307,0.068,0.44c0.045,0.133,0.116,0.25,0.212,0.348
			c0.096,0.098,0.217,0.176,0.364,0.232C75.848,46.384,76.022,46.412,76.226,46.412z"/>
		<path d="M81.665,50.996V39.02h2.48v4.408c0.299-0.256,0.623-0.463,0.972-0.62c0.349-0.157,0.767-0.236,1.252-0.236
			c0.453,0,0.854,0.079,1.204,0.236c0.349,0.157,0.644,0.376,0.884,0.656c0.24,0.28,0.421,0.614,0.544,1
			c0.123,0.387,0.184,0.807,0.184,1.26v5.272h-2.48v-5.272c0-0.405-0.093-0.721-0.28-0.948s-0.461-0.34-0.824-0.34
			c-0.272,0-0.528,0.059-0.768,0.176c-0.24,0.117-0.469,0.274-0.688,0.472v5.912H81.665z"/>
		<path d="M38.57,187.98c0.064,0,0.128,0.012,0.192,0.036s0.125,0.065,0.184,0.124l1.072,1.128c-0.47,0.613-1.058,1.076-1.764,1.388
			c-0.707,0.312-1.543,0.468-2.508,0.468c-0.885,0-1.679-0.15-2.38-0.452c-0.701-0.301-1.296-0.717-1.784-1.248
			c-0.488-0.531-0.863-1.16-1.124-1.888c-0.262-0.728-0.392-1.519-0.392-2.372c0-0.869,0.149-1.668,0.448-2.396
			c0.299-0.728,0.716-1.356,1.252-1.884c0.536-0.528,1.177-0.939,1.924-1.232s1.57-0.44,2.472-0.44c0.438,0,0.85,0.039,1.236,0.116
			c0.386,0.077,0.748,0.184,1.084,0.32c0.336,0.136,0.645,0.299,0.928,0.488c0.283,0.189,0.533,0.398,0.752,0.628l-0.912,1.224
			c-0.059,0.075-0.128,0.143-0.208,0.204c-0.08,0.062-0.192,0.092-0.336,0.092c-0.096,0-0.187-0.021-0.272-0.064
			c-0.085-0.043-0.176-0.095-0.272-0.156c-0.096-0.061-0.201-0.128-0.316-0.2c-0.115-0.072-0.25-0.139-0.408-0.2
			s-0.341-0.113-0.552-0.156c-0.21-0.043-0.458-0.064-0.74-0.064c-0.491,0-0.939,0.086-1.344,0.26
			c-0.405,0.174-0.753,0.421-1.044,0.744c-0.291,0.323-0.518,0.713-0.68,1.172s-0.244,0.973-0.244,1.544
			c0,0.597,0.081,1.128,0.244,1.592c0.163,0.464,0.384,0.855,0.664,1.172c0.28,0.317,0.607,0.559,0.98,0.724
			c0.374,0.166,0.773,0.248,1.2,0.248c0.245,0,0.469-0.012,0.672-0.036c0.203-0.024,0.391-0.065,0.564-0.124
			c0.173-0.059,0.339-0.135,0.496-0.228c0.157-0.093,0.316-0.209,0.476-0.348c0.064-0.053,0.133-0.097,0.208-0.132
			C38.413,187.997,38.49,187.98,38.57,187.98z"/>
		<path d="M41.25,190.996V182.7h1.472c0.123,0,0.225,0.011,0.308,0.032s0.152,0.055,0.208,0.1c0.056,0.045,0.098,0.105,0.128,0.18
			c0.029,0.075,0.055,0.165,0.076,0.272l0.136,0.776c0.304-0.469,0.645-0.84,1.024-1.112c0.378-0.272,0.792-0.408,1.24-0.408
			c0.379,0,0.683,0.091,0.912,0.272l-0.32,1.824c-0.021,0.112-0.064,0.19-0.128,0.236s-0.149,0.068-0.256,0.068
			c-0.09,0-0.197-0.012-0.32-0.036s-0.277-0.036-0.464-0.036c-0.651,0-1.163,0.347-1.536,1.04v5.088H41.25L41.25,190.996z"/>
		<path d="M50.178,182.7v5.264c0,0.411,0.093,0.728,0.28,0.952s0.461,0.336,0.824,0.336c0.272,0,0.527-0.056,0.764-0.168
			c0.237-0.112,0.468-0.269,0.692-0.472V182.7h2.48v8.296h-1.536c-0.31,0-0.512-0.139-0.608-0.416l-0.152-0.48
			c-0.16,0.155-0.325,0.295-0.496,0.42c-0.17,0.125-0.353,0.232-0.548,0.32c-0.195,0.088-0.404,0.157-0.628,0.208
			c-0.224,0.051-0.469,0.076-0.736,0.076c-0.454,0-0.855-0.079-1.204-0.236c-0.35-0.157-0.644-0.377-0.884-0.66
			c-0.24-0.283-0.421-0.616-0.544-1c-0.123-0.384-0.184-0.805-0.184-1.264V182.7H50.178z"/>
		<path d="M59.985,180.428c0,0.197-0.04,0.383-0.12,0.556c-0.08,0.173-0.189,0.326-0.328,0.456c-0.139,0.131-0.3,0.235-0.484,0.312
			c-0.184,0.078-0.38,0.116-0.588,0.116c-0.203,0-0.392-0.039-0.568-0.116c-0.176-0.077-0.332-0.181-0.468-0.312
			c-0.136-0.13-0.243-0.283-0.32-0.456c-0.078-0.173-0.116-0.358-0.116-0.556c0-0.203,0.039-0.392,0.116-0.568
			c0.077-0.176,0.184-0.331,0.32-0.464c0.136-0.133,0.292-0.237,0.468-0.312c0.176-0.075,0.365-0.112,0.568-0.112
			c0.208,0,0.404,0.037,0.588,0.112c0.184,0.075,0.345,0.179,0.484,0.312c0.139,0.133,0.248,0.288,0.328,0.464
			C59.945,180.036,59.985,180.226,59.985,180.428z M59.697,182.7v8.296h-2.48V182.7H59.697z"/>
		<path d="M66.77,184.516c-0.064,0.102-0.132,0.173-0.204,0.216c-0.072,0.043-0.164,0.064-0.276,0.064
			c-0.117,0-0.234-0.025-0.352-0.076c-0.118-0.051-0.244-0.105-0.38-0.164c-0.136-0.059-0.289-0.113-0.46-0.164
			c-0.17-0.051-0.365-0.076-0.584-0.076c-0.314,0-0.556,0.06-0.724,0.18s-0.252,0.287-0.252,0.5c0,0.155,0.055,0.283,0.164,0.384
			c0.109,0.102,0.255,0.191,0.436,0.268c0.181,0.078,0.387,0.151,0.616,0.22c0.229,0.069,0.464,0.146,0.704,0.232
			c0.24,0.085,0.475,0.186,0.704,0.3c0.229,0.115,0.435,0.256,0.616,0.424c0.181,0.168,0.327,0.372,0.436,0.612
			c0.109,0.24,0.164,0.528,0.164,0.864c0,0.411-0.075,0.789-0.224,1.136c-0.149,0.347-0.372,0.646-0.668,0.896
			c-0.296,0.251-0.662,0.445-1.096,0.584s-0.935,0.208-1.5,0.208c-0.283,0-0.565-0.027-0.848-0.08
			c-0.283-0.053-0.556-0.125-0.82-0.216c-0.264-0.091-0.508-0.199-0.732-0.324c-0.224-0.125-0.416-0.26-0.576-0.404l0.576-0.912
			c0.069-0.106,0.152-0.19,0.248-0.252c0.096-0.061,0.221-0.092,0.376-0.092c0.144,0,0.273,0.032,0.388,0.096
			c0.114,0.064,0.238,0.133,0.372,0.208c0.133,0.075,0.289,0.144,0.468,0.208c0.179,0.064,0.404,0.096,0.676,0.096
			c0.192,0,0.355-0.02,0.488-0.06c0.133-0.04,0.24-0.095,0.32-0.164s0.139-0.146,0.176-0.232c0.037-0.085,0.056-0.173,0.056-0.264
			c0-0.165-0.056-0.301-0.168-0.408c-0.112-0.107-0.259-0.199-0.44-0.276c-0.181-0.077-0.388-0.149-0.62-0.216
			c-0.232-0.066-0.468-0.143-0.708-0.228c-0.24-0.085-0.476-0.188-0.708-0.308s-0.438-0.272-0.62-0.456s-0.328-0.41-0.44-0.676
			c-0.112-0.267-0.168-0.589-0.168-0.968c0-0.352,0.068-0.687,0.204-1.004c0.136-0.317,0.34-0.596,0.612-0.836
			c0.272-0.24,0.613-0.431,1.024-0.572c0.411-0.141,0.891-0.212,1.44-0.212c0.299,0,0.588,0.026,0.868,0.08
			c0.28,0.054,0.542,0.128,0.788,0.224c0.246,0.096,0.469,0.209,0.672,0.34c0.203,0.13,0.381,0.273,0.536,0.428L66.77,184.516z"/>
		<path d="M71.585,180.428c0,0.197-0.04,0.383-0.12,0.556c-0.08,0.173-0.189,0.326-0.328,0.456c-0.139,0.131-0.3,0.235-0.484,0.312
			c-0.184,0.078-0.38,0.116-0.588,0.116c-0.203,0-0.392-0.039-0.568-0.116c-0.176-0.077-0.332-0.181-0.468-0.312
			c-0.136-0.13-0.243-0.283-0.32-0.456c-0.078-0.173-0.116-0.358-0.116-0.556c0-0.203,0.039-0.392,0.116-0.568
			c0.077-0.176,0.184-0.331,0.32-0.464c0.136-0.133,0.292-0.237,0.468-0.312c0.176-0.075,0.365-0.112,0.568-0.112
			c0.208,0,0.404,0.037,0.588,0.112s0.345,0.179,0.484,0.312c0.139,0.133,0.248,0.288,0.328,0.464
			C71.545,180.036,71.585,180.226,71.585,180.428z M71.297,182.7v8.296h-2.48V182.7H71.297z"/>
		<path d="M73.297,190.996V182.7h1.536c0.154,0,0.284,0.035,0.388,0.104c0.104,0.069,0.177,0.173,0.22,0.312l0.144,0.48
			c0.16-0.149,0.325-0.288,0.496-0.416c0.17-0.128,0.353-0.236,0.548-0.324c0.195-0.088,0.405-0.157,0.632-0.208
			c0.227-0.05,0.474-0.076,0.74-0.076c0.453,0,0.854,0.079,1.204,0.236c0.349,0.157,0.644,0.376,0.884,0.656
			c0.24,0.28,0.421,0.614,0.544,1c0.123,0.387,0.184,0.807,0.184,1.26v5.272h-2.48v-5.272c0-0.405-0.093-0.721-0.28-0.948
			s-0.461-0.34-0.824-0.34c-0.272,0-0.528,0.059-0.768,0.176c-0.24,0.117-0.469,0.274-0.688,0.472v5.912H73.297L73.297,190.996z"/>
		<path d="M85.505,182.556c0.352,0,0.684,0.035,0.996,0.104c0.312,0.069,0.602,0.168,0.868,0.296h2.504v0.904
			c0,0.139-0.039,0.248-0.116,0.328c-0.078,0.08-0.209,0.142-0.396,0.184l-0.608,0.136c0.074,0.24,0.112,0.488,0.112,0.744
			c0,0.416-0.087,0.79-0.26,1.12s-0.411,0.612-0.712,0.844c-0.301,0.232-0.657,0.411-1.068,0.536
			c-0.411,0.125-0.851,0.188-1.32,0.188c-0.262,0-0.507-0.016-0.736-0.048c-0.181,0.108-0.272,0.231-0.272,0.372
			c0,0.141,0.073,0.241,0.22,0.303c0.146,0.062,0.34,0.105,0.58,0.129c0.24,0.024,0.515,0.036,0.824,0.036
			c0.31,0,0.624,0.015,0.944,0.044c0.32,0.029,0.634,0.079,0.944,0.148c0.309,0.069,0.584,0.182,0.824,0.337
			c0.24,0.155,0.434,0.362,0.58,0.622c0.146,0.259,0.22,0.59,0.22,0.991c0,0.375-0.091,0.741-0.272,1.099
			c-0.182,0.358-0.448,0.677-0.8,0.955c-0.352,0.278-0.784,0.501-1.296,0.67c-0.512,0.168-1.099,0.253-1.76,0.253
			c-0.651,0-1.212-0.062-1.684-0.184c-0.472-0.123-0.864-0.284-1.176-0.484c-0.312-0.201-0.542-0.431-0.692-0.693
			c-0.15-0.262-0.224-0.534-0.224-0.817c0-0.369,0.112-0.68,0.336-0.933c0.224-0.253,0.53-0.452,0.92-0.597
			c-0.187-0.123-0.336-0.279-0.448-0.471c-0.112-0.192-0.168-0.434-0.168-0.727c0-0.123,0.021-0.251,0.064-0.387
			c0.043-0.136,0.109-0.268,0.2-0.396c0.09-0.128,0.205-0.25,0.344-0.368c0.139-0.117,0.304-0.221,0.496-0.312
			c-0.432-0.229-0.772-0.533-1.02-0.912c-0.248-0.379-0.372-0.819-0.372-1.32c0-0.416,0.088-0.791,0.264-1.124
			c0.176-0.333,0.417-0.616,0.724-0.848c0.307-0.232,0.668-0.411,1.084-0.536S85.02,182.556,85.505,182.556z M87.345,191.282
			c0-0.136-0.042-0.245-0.124-0.327s-0.195-0.147-0.336-0.196c-0.142-0.049-0.307-0.084-0.496-0.106s-0.394-0.033-0.612-0.033
			c-0.219,0-0.445,0-0.68,0c-0.235,0-0.467-0.022-0.696-0.068c-0.155,0.107-0.282,0.226-0.38,0.357
			c-0.099,0.131-0.148,0.279-0.148,0.445c0,0.118,0.025,0.225,0.076,0.321c0.051,0.096,0.14,0.179,0.268,0.249
			c0.128,0.069,0.3,0.124,0.516,0.164c0.216,0.04,0.489,0.06,0.82,0.06c0.357,0,0.65-0.022,0.88-0.065s0.412-0.104,0.548-0.18
			c0.136-0.076,0.231-0.167,0.284-0.273C87.318,191.523,87.345,191.407,87.345,191.282z M85.505,186.412
			c0.411,0,0.708-0.103,0.892-0.308s0.276-0.471,0.276-0.796c0-0.336-0.092-0.6-0.276-0.792s-0.481-0.288-0.892-0.288
			s-0.708,0.096-0.892,0.288c-0.184,0.192-0.276,0.456-0.276,0.792c0,0.16,0.022,0.307,0.068,0.44
			c0.045,0.133,0.116,0.25,0.212,0.348c0.096,0.098,0.217,0.176,0.364,0.232C85.127,186.384,85.302,186.412,85.505,186.412z"/>
		<path d="M39.505,319.34v2.145h-3.28v9.513h-2.704v-9.513h-3.28v-2.145H39.505z"/>
		<path d="M42.722,322.572c0.629,0,1.203,0.099,1.72,0.296c0.517,0.196,0.961,0.479,1.332,0.848
			c0.371,0.369,0.659,0.815,0.864,1.341c0.206,0.524,0.308,1.115,0.308,1.771c0,0.66-0.103,1.258-0.308,1.788
			c-0.205,0.53-0.493,0.981-0.864,1.352c-0.371,0.371-0.815,0.656-1.332,0.856c-0.518,0.199-1.091,0.3-1.72,0.3
			c-0.634,0-1.212-0.101-1.732-0.3c-0.52-0.2-0.968-0.485-1.344-0.856c-0.376-0.37-0.667-0.821-0.872-1.352
			c-0.206-0.53-0.308-1.128-0.308-1.788c0-0.656,0.103-1.247,0.308-1.771s0.496-0.973,0.872-1.341s0.824-0.649,1.344-0.848
			C41.51,322.67,42.087,322.572,42.722,322.572z M42.722,329.284c0.571,0,0.991-0.201,1.26-0.604
			c0.269-0.402,0.404-1.015,0.404-1.836c0-0.82-0.135-1.432-0.404-1.832c-0.27-0.398-0.689-0.6-1.26-0.6
			c-0.586,0-1.016,0.199-1.288,0.6s-0.408,1.012-0.408,1.832c0,0.821,0.136,1.434,0.408,1.836
			C41.706,329.083,42.135,329.284,42.722,329.284z"/>
		<path d="M52.001,322.572c0.629,0,1.203,0.099,1.72,0.296c0.517,0.196,0.961,0.479,1.332,0.848
			c0.371,0.369,0.659,0.815,0.864,1.341c0.206,0.524,0.308,1.115,0.308,1.771c0,0.66-0.103,1.258-0.308,1.788
			s-0.493,0.981-0.864,1.352c-0.371,0.371-0.815,0.656-1.332,0.856c-0.518,0.199-1.091,0.3-1.72,0.3c-0.634,0-1.212-0.101-1.732-0.3
			c-0.52-0.2-0.968-0.485-1.344-0.856c-0.376-0.37-0.667-0.821-0.872-1.352c-0.206-0.53-0.308-1.128-0.308-1.788
			c0-0.656,0.103-1.247,0.308-1.771c0.205-0.524,0.496-0.973,0.872-1.341s0.824-0.649,1.344-0.848S51.367,322.572,52.001,322.572z
			 M52.001,329.284c0.571,0,0.991-0.201,1.26-0.604c0.269-0.402,0.404-1.015,0.404-1.836c0-0.82-0.135-1.432-0.404-1.832
			c-0.27-0.398-0.689-0.6-1.26-0.6c-0.586,0-1.016,0.199-1.288,0.6s-0.408,1.012-0.408,1.832c0,0.821,0.136,1.434,0.408,1.836
			C50.985,329.083,51.415,329.284,52.001,329.284z"/>
		<path d="M63.377,328.836h4.32v2.16h-7.024V319.34h2.704V328.836z"/>
		<path d="M72.353,322.572c0.629,0,1.203,0.099,1.72,0.296c0.517,0.196,0.961,0.479,1.332,0.848
			c0.371,0.369,0.659,0.815,0.864,1.341c0.206,0.524,0.308,1.115,0.308,1.771c0,0.66-0.103,1.258-0.308,1.788
			s-0.493,0.981-0.864,1.352c-0.371,0.371-0.815,0.656-1.332,0.856c-0.518,0.199-1.091,0.3-1.72,0.3c-0.634,0-1.212-0.101-1.732-0.3
			c-0.52-0.2-0.968-0.485-1.344-0.856c-0.376-0.37-0.667-0.821-0.872-1.352c-0.206-0.53-0.308-1.128-0.308-1.788
			c0-0.656,0.103-1.247,0.308-1.771c0.205-0.524,0.496-0.973,0.872-1.341s0.824-0.649,1.344-0.848S71.719,322.572,72.353,322.572z
			 M72.353,329.284c0.571,0,0.991-0.201,1.26-0.604c0.269-0.402,0.404-1.015,0.404-1.836c0-0.82-0.135-1.432-0.404-1.832
			c-0.27-0.398-0.689-0.6-1.26-0.6c-0.586,0-1.016,0.199-1.288,0.6s-0.408,1.012-0.408,1.832c0,0.821,0.136,1.434,0.408,1.836
			C71.337,329.083,71.767,329.284,72.353,329.284z"/>
		<path d="M76.977,322.7h1.984c0.176,0,0.328,0.04,0.456,0.12s0.205,0.184,0.232,0.312l0.832,3.722
			c0.064,0.281,0.123,0.557,0.176,0.822c0.053,0.268,0.101,0.531,0.144,0.792c0.074-0.261,0.153-0.522,0.236-0.788
			c0.083-0.264,0.164-0.539,0.244-0.826l1.04-3.729c0.032-0.122,0.109-0.226,0.232-0.308c0.123-0.084,0.264-0.125,0.424-0.125h1.104
			c0.176,0,0.327,0.041,0.452,0.125c0.125,0.082,0.204,0.186,0.236,0.308l0.992,3.729c0.074,0.281,0.15,0.557,0.228,0.822
			c0.077,0.268,0.15,0.536,0.22,0.809c0.042-0.267,0.095-0.531,0.156-0.795c0.061-0.266,0.126-0.543,0.196-0.836l0.88-3.722
			c0.027-0.128,0.103-0.231,0.228-0.312c0.125-0.082,0.268-0.12,0.428-0.12h1.888l-2.576,8.296h-2.016
			c-0.107,0-0.197-0.032-0.272-0.096c-0.075-0.064-0.133-0.172-0.176-0.32l-1.184-4.137c-0.054-0.187-0.104-0.37-0.152-0.551
			c-0.048-0.183-0.091-0.363-0.128-0.545c-0.037,0.188-0.079,0.371-0.124,0.557c-0.045,0.184-0.097,0.369-0.156,0.556l-1.2,4.12
			c-0.08,0.277-0.256,0.416-0.528,0.416h-1.92L76.977,322.7z"/>
		<path d="M23.331,469.044c0.373,0,0.704-0.032,0.992-0.096c0.288-0.064,0.56-0.149,0.816-0.256v-1.77h-1.152
			c-0.171,0-0.304-0.045-0.4-0.136c-0.096-0.091-0.144-0.205-0.144-0.344v-1.488h4.144v4.92c-0.299,0.219-0.609,0.407-0.932,0.564
			c-0.323,0.156-0.667,0.285-1.032,0.388c-0.366,0.102-0.755,0.176-1.168,0.224s-0.857,0.072-1.332,0.072
			c-0.854,0-1.643-0.15-2.368-0.452c-0.726-0.301-1.354-0.717-1.884-1.248c-0.531-0.53-0.947-1.16-1.248-1.888
			c-0.302-0.729-0.452-1.52-0.452-2.372c0-0.869,0.144-1.668,0.432-2.396s0.7-1.355,1.236-1.885c0.536-0.526,1.184-0.938,1.944-1.23
			c0.76-0.294,1.609-0.44,2.548-0.44c0.485,0,0.941,0.04,1.368,0.12c0.427,0.08,0.82,0.188,1.18,0.328
			c0.36,0.139,0.689,0.304,0.988,0.496c0.299,0.19,0.565,0.398,0.8,0.624l-0.784,1.19c-0.075,0.112-0.164,0.2-0.268,0.266
			c-0.104,0.062-0.217,0.096-0.34,0.096c-0.16,0-0.326-0.053-0.496-0.16c-0.213-0.128-0.415-0.238-0.604-0.332
			c-0.189-0.093-0.383-0.169-0.58-0.228c-0.197-0.06-0.405-0.103-0.624-0.128c-0.219-0.027-0.464-0.04-0.736-0.04
			c-0.507,0-0.963,0.089-1.368,0.268c-0.405,0.179-0.75,0.431-1.036,0.756c-0.286,0.326-0.506,0.717-0.66,1.172
			c-0.155,0.456-0.232,0.966-0.232,1.524c0,0.619,0.085,1.168,0.256,1.647c0.17,0.479,0.407,0.886,0.708,1.217
			c0.301,0.33,0.659,0.583,1.072,0.756C22.388,468.957,22.839,469.044,23.331,469.044z"/>
		<path d="M29.234,470.996V462.7h1.472c0.123,0,0.225,0.011,0.308,0.032c0.083,0.021,0.152,0.055,0.208,0.1
			c0.056,0.046,0.098,0.105,0.128,0.18c0.029,0.075,0.055,0.166,0.076,0.272l0.136,0.775c0.304-0.47,0.645-0.841,1.024-1.111
			c0.378-0.272,0.792-0.408,1.24-0.408c0.379,0,0.683,0.091,0.912,0.272l-0.32,1.822c-0.021,0.112-0.064,0.191-0.128,0.236
			s-0.149,0.068-0.256,0.068c-0.09,0-0.197-0.014-0.32-0.036c-0.123-0.024-0.277-0.036-0.464-0.036c-0.651,0-1.163,0.347-1.536,1.04
			v5.088L29.234,470.996L29.234,470.996z"/>
		<path d="M39.538,462.572c0.629,0,1.203,0.099,1.72,0.296c0.517,0.197,0.961,0.479,1.332,0.848c0.371,0.369,0.659,0.815,0.864,1.34
			c0.206,0.525,0.308,1.116,0.308,1.772c0,0.661-0.103,1.258-0.308,1.788c-0.205,0.529-0.493,0.98-0.864,1.352
			c-0.371,0.371-0.815,0.656-1.332,0.856c-0.518,0.2-1.091,0.3-1.72,0.3c-0.634,0-1.212-0.101-1.732-0.3
			c-0.52-0.2-0.968-0.485-1.344-0.856c-0.376-0.37-0.667-0.821-0.872-1.352c-0.206-0.53-0.308-1.127-0.308-1.788
			c0-0.656,0.103-1.247,0.308-1.772c0.205-0.523,0.496-0.972,0.872-1.34s0.824-0.649,1.344-0.848S38.904,462.572,39.538,462.572z
			 M39.538,469.284c0.571,0,0.991-0.201,1.26-0.604c0.269-0.401,0.404-1.015,0.404-1.836c0-0.82-0.135-1.432-0.404-1.832
			c-0.27-0.398-0.689-0.6-1.26-0.6c-0.586,0-1.016,0.2-1.288,0.6c-0.272,0.4-0.408,1.012-0.408,1.832
			c0,0.821,0.136,1.435,0.408,1.836C38.522,469.083,38.952,469.284,39.538,469.284z"/>
		<path d="M47.441,462.7v5.264c0,0.411,0.093,0.729,0.28,0.952c0.187,0.224,0.461,0.336,0.824,0.336
			c0.272,0,0.527-0.056,0.764-0.168c0.237-0.112,0.468-0.27,0.692-0.472V462.7h2.48v8.296h-1.536c-0.31,0-0.512-0.139-0.608-0.416
			l-0.152-0.48c-0.16,0.155-0.325,0.295-0.496,0.422c-0.17,0.125-0.353,0.23-0.548,0.318c-0.195,0.088-0.404,0.157-0.628,0.208
			c-0.224,0.051-0.469,0.076-0.736,0.076c-0.454,0-0.855-0.079-1.204-0.236c-0.35-0.156-0.644-0.377-0.884-0.659
			c-0.24-0.282-0.421-0.615-0.544-1s-0.184-0.806-0.184-1.265V462.7H47.441z"/>
		<path d="M54.402,470.996V462.7h1.536c0.154,0,0.284,0.034,0.388,0.104c0.104,0.07,0.177,0.175,0.22,0.312l0.144,0.479
			c0.16-0.147,0.325-0.288,0.496-0.416c0.17-0.128,0.353-0.234,0.548-0.322c0.195-0.089,0.405-0.157,0.632-0.208
			c0.227-0.052,0.474-0.076,0.74-0.076c0.453,0,0.854,0.078,1.204,0.234c0.349,0.158,0.644,0.377,0.884,0.656
			c0.24,0.28,0.421,0.613,0.544,1c0.123,0.387,0.184,0.808,0.184,1.26v5.272h-2.48v-5.272c0-0.404-0.093-0.721-0.28-0.946
			c-0.187-0.228-0.461-0.34-0.824-0.34c-0.272,0-0.528,0.059-0.768,0.176c-0.24,0.117-0.469,0.273-0.688,0.472v5.912H54.402
			L54.402,470.996z"/>
		<path d="M69.505,470.996c-0.155,0-0.284-0.034-0.388-0.104c-0.104-0.069-0.177-0.174-0.22-0.312l-0.192-0.632
			c-0.165,0.176-0.339,0.336-0.52,0.479c-0.181,0.146-0.377,0.27-0.588,0.372c-0.211,0.104-0.438,0.186-0.68,0.24
			s-0.505,0.084-0.788,0.084c-0.432,0-0.832-0.096-1.2-0.288c-0.368-0.191-0.686-0.469-0.952-0.832
			c-0.267-0.362-0.476-0.807-0.628-1.332c-0.152-0.524-0.228-1.124-0.228-1.796c0-0.618,0.085-1.193,0.256-1.724
			c0.171-0.531,0.412-0.989,0.724-1.376c0.312-0.388,0.687-0.689,1.124-0.908s0.92-0.328,1.448-0.328
			c0.426,0,0.788,0.062,1.084,0.188c0.296,0.125,0.564,0.289,0.804,0.491v-4.199h2.48v11.977L69.505,470.996L69.505,470.996z
			 M66.993,469.22c0.181,0,0.345-0.017,0.492-0.052c0.146-0.034,0.281-0.084,0.404-0.146c0.123-0.064,0.239-0.146,0.348-0.24
			c0.109-0.096,0.217-0.208,0.324-0.336v-3.521c-0.192-0.208-0.396-0.353-0.612-0.436c-0.216-0.083-0.444-0.124-0.684-0.124
			c-0.229,0-0.44,0.045-0.632,0.136c-0.192,0.091-0.359,0.236-0.5,0.438c-0.142,0.198-0.252,0.46-0.332,0.778
			c-0.08,0.32-0.12,0.707-0.12,1.16c0,0.438,0.032,0.806,0.096,1.104c0.064,0.298,0.153,0.539,0.268,0.724
			c0.114,0.184,0.252,0.315,0.412,0.396S66.796,469.22,66.993,469.22z"/>
		<path d="M76.514,462.572c0.549,0,1.052,0.085,1.508,0.256s0.848,0.419,1.176,0.744c0.328,0.325,0.584,0.724,0.768,1.195
			c0.184,0.473,0.276,1.007,0.276,1.604c0,0.187-0.008,0.339-0.024,0.456c-0.016,0.117-0.045,0.211-0.088,0.28
			c-0.043,0.068-0.1,0.116-0.172,0.144s-0.164,0.04-0.276,0.04h-4.784c0.08,0.693,0.291,1.196,0.632,1.508
			c0.341,0.312,0.781,0.469,1.32,0.469c0.288,0,0.536-0.034,0.744-0.104s0.394-0.146,0.556-0.232
			c0.163-0.085,0.312-0.161,0.448-0.23c0.136-0.069,0.278-0.104,0.428-0.104c0.197,0,0.347,0.072,0.448,0.218l0.72,0.888
			c-0.256,0.293-0.532,0.532-0.828,0.716c-0.296,0.185-0.6,0.328-0.912,0.432c-0.312,0.104-0.624,0.178-0.936,0.218
			s-0.609,0.06-0.892,0.06c-0.582,0-1.127-0.095-1.636-0.284c-0.509-0.188-0.955-0.471-1.336-0.844
			c-0.381-0.373-0.683-0.837-0.904-1.392c-0.221-0.556-0.332-1.2-0.332-1.938c0-0.555,0.095-1.08,0.284-1.576
			s0.461-0.931,0.816-1.304c0.354-0.373,0.784-0.669,1.288-0.888C75.31,462.682,75.879,462.572,76.514,462.572z M76.562,464.284
			c-0.475,0-0.845,0.135-1.112,0.403c-0.267,0.27-0.443,0.657-0.528,1.164h3.096c0-0.196-0.025-0.39-0.076-0.575
			c-0.051-0.187-0.133-0.354-0.248-0.5c-0.115-0.146-0.265-0.267-0.452-0.356C77.055,464.329,76.828,464.284,76.562,464.284z"/>
		<path d="M87.489,470.996c-0.155,0-0.284-0.034-0.388-0.104c-0.104-0.069-0.177-0.174-0.22-0.312l-0.192-0.632
			c-0.165,0.176-0.339,0.336-0.52,0.479c-0.181,0.146-0.377,0.27-0.588,0.372c-0.211,0.104-0.438,0.186-0.68,0.24
			c-0.242,0.055-0.505,0.084-0.788,0.084c-0.432,0-0.832-0.096-1.2-0.288c-0.368-0.191-0.686-0.469-0.952-0.832
			c-0.267-0.362-0.476-0.807-0.628-1.332c-0.152-0.524-0.228-1.124-0.228-1.796c0-0.618,0.085-1.193,0.256-1.724
			c0.171-0.531,0.412-0.989,0.724-1.376c0.312-0.388,0.687-0.689,1.124-0.908s0.92-0.328,1.448-0.328
			c0.426,0,0.788,0.062,1.084,0.188c0.296,0.125,0.564,0.289,0.804,0.491v-4.199h2.48v11.977L87.489,470.996L87.489,470.996z
			 M84.977,469.22c0.181,0,0.345-0.017,0.492-0.052c0.146-0.034,0.281-0.084,0.404-0.146c0.123-0.064,0.239-0.146,0.348-0.24
			c0.109-0.096,0.217-0.208,0.324-0.336v-3.521c-0.192-0.208-0.396-0.353-0.612-0.436c-0.216-0.083-0.444-0.124-0.684-0.124
			c-0.229,0-0.44,0.045-0.632,0.136c-0.192,0.091-0.359,0.236-0.5,0.438c-0.142,0.198-0.252,0.46-0.332,0.778
			c-0.08,0.32-0.12,0.707-0.12,1.16c0,0.438,0.032,0.806,0.096,1.104c0.064,0.298,0.153,0.539,0.268,0.724
			c0.114,0.184,0.252,0.315,0.412,0.396S84.78,469.22,84.977,469.22z"/>
	</g>
</g>
<g id="graph">
	<g>
		<g>
			
				<line fill="none" stroke="#00C1DE" stroke-width="4" stroke-miterlimit="10" x1="130.773" y1="326.314" x2="131.993" y2="320.439"/>
			<polyline fill="none" stroke="#00C1DE" stroke-width="4" stroke-miterlimit="10" stroke-dasharray="11.6841,11.6841" points="
				134.369,309 159.777,186.646 187.709,63.531 			"/>
			<path fill="none" stroke="#00C1DE" stroke-width="4" stroke-miterlimit="10" d="M189.001,57.833l1.328-5.851
				c0,0,0.445,2.135,1.225,5.871"/>
			<path fill="none" stroke="#00C1DE" stroke-width="4" stroke-miterlimit="10" stroke-dasharray="11.8628,11.8628" d="
				M193.985,69.464c7.954,37.934,26.122,123.986,26.122,118.519c0-5.736,20.31-97.354,27.644-130.249"/>
			<path fill="none" stroke="#00C1DE" stroke-width="4" stroke-miterlimit="10" d="M249.043,51.942
				c0.833-3.729,1.309-5.853,1.309-5.853l1.225,5.874"/>
			
				<line fill="none" stroke="#00C1DE" stroke-width="4" stroke-miterlimit="10" stroke-dasharray="11.9619,11.9619" x1="254.019" y1="63.673" x2="277.217" y2="174.918"/>
			<polyline fill="none" stroke="#00C1DE" stroke-width="4" stroke-miterlimit="10" points="278.438,180.773 279.663,186.646 
				285.662,186.581 			"/>
			<path fill="none" stroke="#00C1DE" stroke-width="4" stroke-miterlimit="10" d="M303.441,186.385l6-0.066
				c0,0,0.434,2.135,1.194,5.876"/>
			<path fill="none" stroke="#00C1DE" stroke-width="4" stroke-miterlimit="10" stroke-dasharray="11.9037,11.9037" d="
				M313.016,203.858c7.911,38.708,26.203,127.615,26.203,122.128c0-7,29.778-139.667,29.778-139.667l27.279-127.646"/>
			<polyline fill="none" stroke="#00C1DE" stroke-width="4" stroke-miterlimit="10" points="397.521,52.847 398.774,46.979 
				399.2,52.964 			"/>
			
				<line fill="none" stroke="#00C1DE" stroke-width="4" stroke-miterlimit="10" stroke-dasharray="11.6589,11.6589" x1="400.026" y1="64.593" x2="427.714" y2="454.183"/>
			<polyline fill="none" stroke="#00C1DE" stroke-width="4" stroke-miterlimit="10" points="428.127,459.997 428.552,465.982 
				429.188,460.017 			"/>
			
				<line fill="none" stroke="#00C1DE" stroke-width="4" stroke-miterlimit="10" stroke-dasharray="11.6921,11.6921" x1="430.428" y1="448.39" x2="457.074" y2="198.426"/>
			<polyline fill="none" stroke="#00C1DE" stroke-width="4" stroke-miterlimit="10" points="457.694,192.613 458.33,186.646 
				464.33,186.646 			"/>
			<polyline fill="none" stroke="#00C1DE" stroke-width="4" stroke-miterlimit="10" stroke-dasharray="14.5566,14.5566" points="
				478.887,186.646 488.108,186.646 500.722,186.646 			"/>
			<polyline fill="none" stroke="#00C1DE" stroke-width="4" stroke-miterlimit="10" points="508,186.646 514,186.646 
				515.406,192.479 			"/>
			
				<line fill="none" stroke="#00C1DE" stroke-width="4" stroke-miterlimit="10" stroke-dasharray="11.9698,11.9698" x1="518.21" y1="204.116" x2="544.856" y2="314.663"/>
			<polyline fill="none" stroke="#00C1DE" stroke-width="4" stroke-miterlimit="10" points="546.258,320.48 547.664,326.314 
				548.915,320.445 			"/>
			
				<line fill="none" stroke="#00C1DE" stroke-width="4" stroke-miterlimit="10" stroke-dasharray="11.8916,11.8916" x1="551.395" y1="308.816" x2="574.951" y2="198.33"/>
			
				<line fill="none" stroke="#00C1DE" stroke-width="4" stroke-miterlimit="10" x1="576.191" y1="192.515" x2="577.442" y2="186.646"/>
		</g>
	</g>
	<circle fill="#00C1DE" cx="130.773" cy="326.314" r="11.227"/>
	<circle fill="#00C1DE" cx="159.777" cy="185.315" r="11.227"/>
	<circle fill="#00C1DE" cx="190.33" cy="46.089" r="11.227"/>
	<circle fill="#00C1DE" cx="220.108" cy="185.315" r="11.227"/>
	<circle fill="#00C1DE" cx="250.353" cy="46.089" r="11.227"/>
	<circle fill="#00C1DE" cx="279.01" cy="185.315" r="11.227"/>
	<circle fill="#00C1DE" cx="309.441" cy="186.319" r="11.227"/>
	<circle fill="#00C1DE" cx="339.219" cy="325.987" r="11.227"/>
	<circle fill="#00C1DE" cx="368.997" cy="186.319" r="11.227"/>
	<circle fill="#00C1DE" cx="397.997" cy="46.09" r="11.227"/>
	<circle fill="#00C1DE" cx="428.553" cy="465.982" r="11.227"/>
	<circle fill="#00C1DE" cx="457.883" cy="185.316" r="11.227"/>
	<circle fill="#00C1DE" cx="488.987" cy="185.316" r="11.227"/>
	<circle fill="#00C1DE" cx="516.729" cy="185.316" r="11.227"/>
	<circle fill="#00C1DE" cx="547.665" cy="326.314" r="11.227"/>
	<circle fill="#00C1DE" cx="577.107" cy="185.315" r="11.227"/>
	<g>
		<polygon fill="#5E5F61" points="615.9,198.344 606.588,178.031 674.064,175.924 673.886,176.616 		"/>
		<polygon fill="#F4CF18" points="608.854,195.216 673.933,176.433 673.804,176.93 614.549,207.315 		"/>
		<polygon fill="#232E66" points="641.351,186.796 673.927,176.457 673.784,177.039 644.434,193.74 		"/>
		<polygon fill="#73B452" points="611.506,163.316 674.168,175.531 674.064,175.924 606.588,178.031 		"/>
		<polygon fill="#F37641" points="597.166,206.25 604.36,184.697 674.019,176.097 673.877,176.645 		"/>
	</g>
</g>
</svg>
